<svg width="205" height="66" fill="none" xmlns="http://www.w3.org/2000/svg"><path d="M105.1 56h-15v3h15v-3z" fill="#46D7A5"/><path d="M79.8 30.4a7.4 7.4 0 01-4-6.9c0-1.5.3-2.9 1-4a7.5 7.5 0 013-2.8c1.3-.7 2.8-1 4.4-1a9 9 0 014.3 1 7.6 7.6 0 014 6.8c0 1.5-.3 2.9-1 4a7.5 7.5 0 01-3 2.9 9 9 0 01-4.3 1c-1.6 0-3-.4-4.4-1zm7.2-3.8c.7-.8 1-1.8 1-3 0-1.4-.3-2.4-1-3.2a3.7 3.7 0 00-2.8-1.1c-1.2 0-2.1.4-2.8 1.1-.8.8-1.1 1.8-1.1 3.1s.3 2.3 1 3c.8.9 1.7 1.2 2.9 1.2 1.1 0 2-.3 2.8-1.1zM98.4 30.4a7.4 7.4 0 01-4-6.9c0-1.5.3-2.9 1-4a7.5 7.5 0 013-2.8c1.3-.7 2.8-1 4.4-1a9 9 0 014.3 1 7.6 7.6 0 014 6.8c0 1.5-.3 2.9-1 4a7.5 7.5 0 01-3 2.9 9 9 0 01-4.3 1c-1.6 0-3-.4-4.4-1zm7.2-3.8c.7-.8 1-1.8 1-3 0-1.4-.3-2.4-1-3.2a3.7 3.7 0 00-2.8-1.1c-1.2 0-2.1.4-2.8 1.1-.8.8-1.2 1.8-1.2 3.1s.4 2.3 1.2 3c.7.9 1.6 1.2 2.8 1.2 1.1 0 2-.3 2.8-1.1zM129.6 10v21.1h-4.2v-1.7c-1 1.3-2.7 2-4.8 2a8 8 0 01-3.9-1c-1.1-.6-2-1.6-2.7-2.8-.7-1.1-1-2.5-1-4 0-1.7.3-3 1-4.2a7 7 0 012.7-2.8 8 8 0 014-1c1.9 0 3.4.7 4.5 1.9V10h4.4zm-5.4 16.6c.7-.8 1.1-1.8 1.1-3 0-1.4-.4-2.4-1.1-3.2a3.7 3.7 0 00-2.8-1.1c-1.1 0-2 .4-2.8 1.1-.7.8-1.1 1.8-1.1 3.1s.4 2.3 1.1 3c.7.9 1.7 1.2 2.8 1.2 1.1 0 2-.3 2.8-1.1zM140.1 16.2a8 8 0 013.1-.5v4h-1a4 4 0 00-3 1c-.7.8-1 1.8-1 3.2v7.3h-4.5V15.8h4.3v2c.5-.7 1.2-1.3 2.1-1.7zM146 13c-.4-.4-.7-1-.7-1.7s.3-1.3.8-1.8c.5-.4 1.2-.7 2-.7s1.5.2 2 .7c.5.5.7 1 .7 1.7s-.2 1.3-.7 1.8c-.5.5-1.2.8-2 .8s-1.5-.3-2-.8zM146 16h4.4V31h-4.4V16zM169.6 15.9L163 31h-4.5L152 16h4.6l4.2 10.4 4.4-10.4h4.3zM185.8 24.8h-11.5c.2 1 .7 1.7 1.4 2.2.8.6 1.8.8 3 .8a5 5 0 003.8-1.5l2.3 2.6c-1.4 1.7-3.5 2.5-6.3 2.5a10 10 0 01-4.5-1 7.4 7.4 0 01-4.2-6.9c0-1.5.4-2.8 1-4a7.4 7.4 0 013-2.8c1.3-.7 2.6-1 4.2-1 1.5 0 2.8.3 4 1a7 7 0 012.9 2.7c.7 1.2 1 2.6 1 4.2v1.2zm-10.3-5c-.7.6-1.1 1.4-1.3 2.4h7.5A3.6 3.6 0 00178 19c-1 0-1.9.3-2.5.8zM120.3 57c1.3 0 2.3-.2 3.2-.8a3 3 0 001.4-2.3h1.7c0 .9-.3 1.6-1 2.3-.5.7-1.3 1.2-2.2 1.6-1 .3-2 .5-3 .5a7 7 0 01-5.2-1.8 6.6 6.6 0 01-1.9-5v-.4c0-1.3.3-2.5.9-3.5.5-1 1.3-1.8 2.4-2.4 1-.5 2.3-.8 3.7-.8 1.8 0 3.3.4 4.4 1.3 1.2.9 1.8 2 2 3.5h-1.8c-.1-1-.6-2-1.4-2.6a5 5 0 00-3.2-1 5 5 0 00-3.8 1.5c-1 1-1.4 2.3-1.4 4v.5c0 1.7.5 3 1.4 4a5 5 0 003.8 1.5zm20.3 1c-.2-.3-.3-1-.3-1.8-.7.7-1.5 1.2-2.5 1.6-1 .4-2 .5-3.1.5-1.6 0-2.9-.3-3.8-1-1-.8-1.5-1.7-1.5-2.8 0-1.3.7-2.3 2-3 1.3-.8 3.2-1.2 5.6-1.2h3.2v-1.6c0-1-.3-1.7-1-2.2a5 5 0 00-3.2-.9c-1.3 0-2.3.3-3.1.8-.9.6-1.3 1.2-1.3 2h-1.8c0-1.1.6-2 1.8-2.8a8 8 0 014.5-1.2c1.8 0 3.3.4 4.3 1.1 1 .8 1.6 1.8 1.6 3.2V55c0 1.3.2 2.3.5 3h-1.9zm-5.7-1a7 7 0 003.3-.7c1-.5 1.6-1.1 2-2v-2.9H137c-1.8 0-3.2.3-4.2.8-1 .6-1.6 1.3-1.6 2.2 0 .8.4 1.4 1 1.9.7.5 1.6.7 2.7.7zm19.6-11l-1.3-.2a5 5 0 00-2.8.8c-.8.5-1.4 1.3-1.7 2.3V58h-1.8V44.6h1.8v2.2c1-1.6 2.5-2.4 4.6-2.4.5 0 1 0 1.2.2v1.3zm16 5.5c0 2.1-.5 3.8-1.6 5a6 6 0 01-4.6 1.8c-2.3 0-4-.7-5.2-2V58h-1.8V39h1.8v7.6c1.2-1.5 2.9-2.2 5.2-2.2 2 0 3.4.6 4.6 1.8a7.1 7.1 0 011.7 5v.3zm-1.8-.3a6 6 0 00-1.2-4c-.9-1-2-1.5-3.6-1.5-1.1 0-2.1.2-3 .7-.7.5-1.3 1.1-1.8 2v6.1c1 1.7 2.6 2.5 4.9 2.5 1.5 0 2.6-.4 3.5-1.4.8-1 1.2-2.4 1.2-4.4zm4.9 0a6.3 6.3 0 013.5-5.9c1-.6 2.4-1 3.8-1 2.2 0 4 .7 5.3 2 1.3 1.2 2 2.9 2 5v.3c0 1.3-.3 2.5-1 3.5-.5 1-1.4 1.8-2.5 2.4-1.1.6-2.4.8-3.8.8-2.2 0-4-.6-5.3-1.8-1.4-1.3-2-3-2-5v-.3zm1.8.4c0 1.6.5 3 1.5 4s2.4 1.5 4 1.5 3-.5 4-1.6c1-1 1.5-2.4 1.5-4v-.3c0-1-.2-2-.7-2.9a4.9 4.9 0 00-2-2c-.8-.4-1.7-.6-2.8-.6a5.3 5.3 0 00-5.5 5.6v.3zm18.3-7V47a6 6 0 012.4-1.8c.9-.5 1.9-.7 3-.7 1.8 0 3 .4 4 1.2.8.8 1.2 2 1.2 3.7V58h-1.8v-8.8c0-1.2-.3-2.1-1-2.7-.5-.6-1.5-1-2.8-1a5.3 5.3 0 00-5 3.3V58H192V44.6h1.7z" fill="#1A2E42"/><ellipse cx="31" cy="32.5" rx="31" ry="29.5" fill="#74E1BB"/><ellipse cx="30.5" cy="16" rx="16.5" ry="16" fill="#1A2E42"/><circle cx="15" cy="22" r="10" fill="#1A2E42"/><circle cx="36.5" cy="36.5" r="3.5" fill="#1A2E42"/><ellipse cx="45" cy="20.5" rx="12" ry="11.5" fill="#1A2E42"/><path fill="#1A2E42" d="M34 44h11v22H34z"/></svg>