<svg width="512" height="512" fill="none" xmlns="http://www.w3.org/2000/svg"><path d="M96 440a8 8 0 01-8-8v-16a8 8 0 1116 0v16a8 8 0 01-8 8zm64 0a8 8 0 01-8-8v-16a8 8 0 1116 0v16a8 8 0 01-8 8zm192 0a8 8 0 01-8-8v-16a8 8 0 1116 0v16a8 8 0 01-8 8zm64 0a8 8 0 01-8-8v-16a8 8 0 1116 0v16a8 8 0 01-8 8zm-192 0a8 8 0 01-8-8v-16a8 8 0 1116 0v16a8 8 0 01-8 8zm64 0a8 8 0 01-8-8v-16a8 8 0 1116 0v16a8 8 0 01-8 8z" fill="#B8C2CC"/><path d="M232 216h48v72h-48v-72z" fill="#2E3D4D"/><path d="M256 248a8 8 0 01-8-8v-16a8 8 0 1116 0v16a8 8 0 01-8 8z" fill="#D9DFE9"/><path d="M24 336v96h16l24-96H24z" fill="#535F6A"/><path d="M24 296h464v40H24v-40z" fill="#2E3D4D"/><path d="M488 336v96h-16l-24-96h40zM383.9 80h-256a16 16 0 00-16 16v112a16 16 0 0016 16h256a16 16 0 0016-16V96a16 16 0 00-16-16z" fill="#535F6A"/><path d="M183.9 184a32 32 0 100-64 32 32 0 000 64z" fill="#F7C04A"/><path d="M216 152h-32v-32a32 32 0 0132 32z" fill="#F5A431"/><path d="M256 160h32v32h-32v-32z" fill="#71AC9C"/><path d="M288 136h32v56h-32v-56z" fill="#6DAC90"/><path d="M320 112h32v80h-32v-80z" fill="#5EBD92"/><path d="M128 272a48 48 0 0148 48v56H80v-56a48 48 0 0148-48z" fill="#F08067"/><path d="M120 344h16v72h-16v-72z" fill="#D9DFE9"/><path d="M80 408h96v16H80v-16z" fill="#D9DFE9"/><path d="M384 272a48 48 0 0148 48v56h-96v-56a48 48 0 0148-48z" fill="#F08067"/><path d="M376 344h16v72h-16v-72z" fill="#D9DFE9"/><path d="M336 408h96v16h-96v-16z" fill="#D9DFE9"/><path d="M256 272a48 48 0 0148 48v56h-96v-56a48 48 0 0148-48z" fill="#F08067"/><path d="M248 344h16v72h-16v-72z" fill="#D9DFE9"/><path d="M208 408h96v16h-96v-16z" fill="#D9DFE9"/><path d="M232 184h144v16H232v-16z" fill="#A8C0FC"/></svg>