<svg width="612" height="612" fill="none" xmlns="http://www.w3.org/2000/svg"><g clip-path="url(#clip0)"><path d="M546 232H66a15 15 0 00-15 15v300a15 15 0 0015 15h105l135-11 135 11h105a15 15 0 0015-15V247a15 15 0 00-15-15z" fill="#5E6F80"/><path d="M561 547V247a15 15 0 00-15-15H306v319l135 11h105a15 15 0 0015-15z" fill="#1A2E42"/><path d="M361 562h80V167a15 15 0 00-15-15H186a15 15 0 00-15 15v395h80l55-14 55 14z" fill="#75889B"/><path d="M426 152H306v396l55 14h80V167a15 15 0 00-15-15z" fill="#5E6F80"/><path d="M306 240a15 15 0 01-12-6l-48-65a74 74 0 0160-119 75 75 0 0160 119l-48 65a15 15 0 01-12 6z" fill="#F88970"/><path d="M373 91a74 74 0 00-67-41v190a15 15 0 0012-6l48-65a74 74 0 007-78z" fill="#E07A63"/><path d="M501 322a15 15 0 100-30 15 15 0 000 30zM501 382a15 15 0 100-30 15 15 0 000 30zM501 442a15 15 0 100-30 15 15 0 000 30zM501 502a15 15 0 100-30 15 15 0 000 30zM366 302a15 15 0 100-30 15 15 0 000 30zM366 362a15 15 0 100-30 15 15 0 000 30zM366 422a15 15 0 100-30 15 15 0 000 30z" fill="#EBE1DC"/><path d="M246 302a15 15 0 100-30 15 15 0 000 30zM246 362a15 15 0 100-30 15 15 0 000 30zM246 422a15 15 0 100-30 15 15 0 000 30zM306 302a15 15 0 100-30 15 15 0 000 30z" fill="#FFF5F5"/><path d="M321 287a15 15 0 00-15-15v30a15 15 0 0015-15zM366 242a15 15 0 100-30 15 15 0 000 30z" fill="#EBE1DC"/><path d="M246 242a15 15 0 100-30 15 15 0 000 30zM306 362a15 15 0 100-30 15 15 0 000 30z" fill="#FFF5F5"/><path d="M321 347a15 15 0 00-15-15v30a15 15 0 0015-15z" fill="#EBE1DC"/><path d="M306 422a15 15 0 100-30 15 15 0 000 30z" fill="#FFF5F5"/><path d="M321 407a15 15 0 00-15-15v30a15 15 0 0015-15z" fill="#EBE1DC"/><path d="M111 322a15 15 0 100-30 15 15 0 000 30zM111 382a15 15 0 100-30 15 15 0 000 30zM111 442a15 15 0 100-30 15 15 0 000 30zM111 502a15 15 0 100-30 15 15 0 000 30z" fill="#FFF5F5"/><path d="M361 467a15 15 0 00-15-15h-80a15 15 0 00-15 15v95h30l25-8 25 8h30v-95z" fill="#5E6F80"/><path d="M346 452h-40v102l25 8h30v-95a15 15 0 00-15-15z" fill="#1A2E42"/><path d="M281 482h50v80h-50v-80z" fill="#FFF5F5"/><path d="M306 482h25v80h-25v-80z" fill="#EBE1DC"/><path d="M306 140a15 15 0 100-30 15 15 0 000 30z" fill="#FFF5F5"/><path d="M306 110v30a15 15 0 100-30z" fill="#EBE1DC"/></g><defs><clipPath id="clip0"><path fill="#fff" transform="translate(50 50)" d="M0 0h512v512H0z"/></clipPath></defs></svg>