<svg width="612" height="612" fill="none" xmlns="http://www.w3.org/2000/svg"><path d="M97 144a47 47 0 11.1-94.1A47 47 0 0197 144zM418 562c-49.1 0-94.7-26.6-120.8-68.4a110.2 110.2 0 01-87.2 43A112 112 0 0199 423.8c0-14 2.6-27.8 7.5-40.8A114.2 114.2 0 0150 285.3a112.5 112.5 0 01113.2-112.7A95.7 95.7 0 01258 83a95 95 0 0175.7 38.2c23.8-19.3 53.6-30 84.3-30 74.4 0 135 61.5 135 137.1 0 32.5-11 63-31 87.5a146 146 0 01-2.3 203A141.8 141.8 0 01418 562z" fill="#5E6F80"/><path d="M144 97c0-26-21-47-47-47v94c26 0 47-21 47-47zM553 228.3c0-75.6-60.6-137.2-135-137.2-30.7 0-60.5 10.8-84.3 30.1A96 96 0 00306 96.3v409.8c26.8 34.5 68 55.9 112 55.9 38.2 0 74.4-15.3 101.7-43.2a146 146 0 002.3-203c20-24.5 31-55 31-87.5z" fill="#3F5770"/><path d="M251.8 364.4A64.9 64.9 0 11288.1 246a15 15 0 01-16.8 24.8 34.9 34.9 0 10-19.5 63.7 25.2 25.2 0 0020-8.7 15 15 0 0122.9 19.3 55.1 55.1 0 01-42.9 19.4z" fill="#fff"/><path d="M376.2 365a64.9 64.9 0 11.1-129.8 64.9 64.9 0 01-.1 129.8zm0-99.6a34.9 34.9 0 100 69.7 34.9 34.9 0 000-69.7zM440.5 472.3c-15.6 0-16.9-.4-18.9-1.1a15.5 15.5 0 01-9.9-10.1c-2.4-8 1.6-13.1 6.6-19.7 4-5.2 11.2-14.7 23.5-32.2 3.6-5.2 5.1-8.8 5.8-11v-1a4.9 4.9 0 00-9.6-.3 15 15 0 11-29.4-5.8 35 35 0 0169.1 6.8l-.1 1.9-.4 3-.3 1.5c-1.6 7-5 14.2-10.6 22-4.3 6.3-8 11.5-11.2 15.9l10.7-.1a15 15 0 01.4 30l-25.7.2z" fill="#E2E2E2"/></svg>